<svg width="149" height="149" viewBox="0 0 149 149" fill="none" xmlns="http://www.w3.org/2000/svg">
<circle cx="74.5" cy="74.5" r="74.5" fill="white" fill-opacity="0.3"/>
<path d="M66.0973 93.9926L48.5062 76.3531C48.0462 75.8862 47.4984 75.5155 46.8945 75.2625C46.2905 75.0095 45.6425 74.8792 44.988 74.8792C44.3335 74.8792 43.6855 75.0095 43.0816 75.2625C42.4776 75.5155 41.9298 75.8862 41.4698 76.3531C41.0042 76.8143 40.6345 77.3637 40.3822 77.9693C40.1299 78.5749 40 79.2246 40 79.881C40 80.5373 40.1299 81.1871 40.3822 81.7927C40.6345 82.3982 41.0042 82.9476 41.4698 83.4089L62.5288 104.526C64.489 106.491 67.6554 106.491 69.6155 104.526L117.53 56.5296C117.996 56.0684 118.365 55.519 118.618 54.9134C118.87 54.3078 119 53.6581 119 53.0017C119 52.3454 118.87 51.6956 118.618 51.0901C118.365 50.4845 117.996 49.9351 117.53 49.4739C117.07 49.007 116.522 48.6363 115.918 48.3833C115.314 48.1303 114.666 48 114.012 48C113.357 48 112.709 48.1303 112.106 48.3833C111.502 48.6363 110.954 49.007 110.494 49.4739L66.0973 93.9926Z" fill="white"/>
</svg>
